<svg width="40" height="40" viewBox="0 0 40 40" fill="none" xmlns="http://www.w3.org/2000/svg">
<path d="M39 20C39 29.9168 30.7419 38 20.5 38C10.2581 38 2 29.9168 2 20C2 10.0832 10.2581 2 20.5 2C30.7419 2 39 10.0832 39 20Z" stroke="white" stroke-width="2"/>
<path d="M7 33C7.45 32.3143 8.19636 31.0209 9.7 30.2571C11.05 29.5714 15.775 28.8857 16.45 27.5143C16.99 26.4171 17.125 25.2286 17.125 24.7714L15.775 22.7143C14.875 22.2571 14.425 22.0286 13.75 20.6571C13.4481 20.0438 13.075 17.9143 13.75 17.9143C14.425 17.9143 13.75 16.7047 13.75 15.1714C13.75 13.8 14.425 12.4286 15.775 11.0571C17.125 9.68571 19.15 9 21.175 9C23.875 9 24.55 9.68571 25.225 11.0571C25.225 11.0571 25.9 11.0571 26.575 11.7429C27.25 12.4286 27.925 14.1971 27.925 15.1714C27.925 16.1458 27.25 17.9143 27.925 17.9143C28.6 17.9143 28.3279 19.8386 27.925 20.6571C27.5875 21.3429 27.25 22.0286 25.9 22.7143L24.55 24.7714C24.55 25.4571 24.3357 26.6108 25.225 27.5143C26.1143 28.4177 31.3346 30.0403 31.975 30.2571C34 30.9429 34 32.3143 34 33" stroke="white" stroke-width="2"/>
</svg>
