<svg width="30" height="30" viewBox="0 0 30 30" fill="none" xmlns="http://www.w3.org/2000/svg">
<path d="M17 11.5V12H17.5V11.5H17ZM17 7L17.3427 6.6359C17.1974 6.49919 16.9848 6.46189 16.8017 6.54101C16.6186 6.62013 16.5 6.80052 16.5 7H17ZM17 23.5H16.5V24.7071L17.3536 23.8536L17 23.5ZM17 18.5H17.5V18H17V18.5ZM25.1247 14.6468L25.4674 14.2827L25.1247 14.6468ZM12 6.5H6V7.5H12V6.5ZM3.5 9V21H4.5V9H3.5ZM6 23.5H12V22.5H6V23.5ZM10.5 12H17V11H10.5V12ZM17.5 11.5V7H16.5V11.5H17.5ZM16.6573 7.3641L24.782 15.0109L25.4674 14.2827L17.3427 6.6359L16.6573 7.3641ZM24.782 15.0109L16.6464 23.1464L17.3536 23.8536L25.4891 15.718L24.782 15.0109ZM17.5 23.5V18.5H16.5V23.5H17.5ZM17 18H10.5V19H17V18ZM10 17.5V12.5H9V17.5H10ZM10.5 18C10.2239 18 10 17.7761 10 17.5H9C9 18.3284 9.67157 19 10.5 19V18ZM10.5 11C9.67157 11 9 11.6716 9 12.5H10C10 12.2239 10.2239 12 10.5 12V11ZM24.782 15.0109L25.4891 15.718C25.888 15.3191 25.8782 14.6693 25.4674 14.2827L24.782 15.0109ZM3.5 21C3.5 22.3807 4.61929 23.5 6 23.5V22.5C5.17157 22.5 4.5 21.8284 4.5 21H3.5ZM6 6.5C4.61929 6.5 3.5 7.61929 3.5 9H4.5C4.5 8.17157 5.17157 7.5 6 7.5V6.5Z" fill="white"/>
</svg>
